:FULLY-SPECIFIED
:FORCE-ALL-JOINTS-BE-3DOF
:DEGREES
211
root 8.62548 16.4955 -7.39728 8.62821 0.852431 -2.28414
lfemur -38.1817 8.40229 -20.7711
ltibia 51.8801 -0 0
lfoot -10.1311 8.98016 -0.0877724
ltoes -1.61386 0 0
rfemur -4.02116 2.9811 24.859
rtibia 26.367 -0 0
rfoot -7.71884 2.90398 0.218622
rtoes -14.8003 0 0
lowerback -5.35132 1.56799 0.275182
upperback -2.32793 2.05665 2.65993
thorax 0.517334 1.03721 2.70915
lowerneck -15.5424 -6.5994 -14.9796
upperneck 14.5809 -8.44845 15.6341
head 8.45132 -3.47157 6.78356
lclavicle -2.63436e-14 -6.84993e-15 1.04064e-30
lhumerus -47.6917 -8.35158 92.6832
lradius 26.7932 -0 0
lwrist 6.94265 0 0
lhand -11.3761 -23.3572 0.0563117
lfingers 7.12502 -0 0
lthumb 14.6545 6.04811 0.0407301
rclavicle -2.63436e-14 -6.84993e-15 1.04064e-30
rhumerus -42.9976 9.27317 -82.2167
rradius 43.8937 -0 0
rwrist -22.4098 0 0
rhand -30.9199 -24.875 0.00160402
rfingers 7.12502 -0 0
rthumb -4.20573 -54.8128 0.00151753
212
root 8.64453 16.4897 -7.24464 8.66908 0.674083 -2.29437
lfemur -38.388 8.42732 -20.8235
ltibia 51.6044 -0 0
lfoot -10.0333 8.86809 -0.0883463
ltoes -1.56616 0 0
rfemur -3.5165 2.94755 24.7678
rtibia 26.292 -0 0
rfoot -7.28506 2.96717 0.220058
rtoes -14.8231 0 0
lowerback -5.4017 1.58439 0.26931
upperback -2.33945 2.07825 2.63614
thorax 0.533263 1.04783 2.69063
lowerneck -15.632 -6.58404 -14.9459
upperneck 14.6489 -8.42631 15.6127
head 8.48378 -3.45694 6.77429
lclavicle -2.66502e-14 -6.42629e-15 1.04744e-30
lhumerus -47.6429 -8.25073 92.5489
lradius 26.5711 -0 0
lwrist 6.55808 0 0
lhand -11.2215 -23.3116 0.0566799
lfingers 7.12502 -0 0
lthumb 14.8034 6.08228 0.0409965
rclavicle -2.66502e-14 -6.42629e-15 1.04744e-30
rhumerus -43.0977 9.24652 -82.3673
rradius 43.8549 -0 0
rwrist -22.4375 0 0
rhand -30.9052 -24.8614 0.0016145
rfingers 7.12502 -0 0
rthumb -4.19155 -54.7994 0.00152745
213
root 8.66358 16.4839 -7.092 8.70998 0.495743 -2.30473
lfemur -38.5944 8.45215 -20.876
ltibia 51.3286 -0 0
lfoot -9.93551 8.75602 -0.088729
ltoes -1.51846 0 0
rfemur -3.0118 2.91481 24.6764
rtibia 26.217 -0 0
rfoot -6.85129 3.03036 0.221015
rtoes -14.8458 0 0
lowerback -5.45209 1.60079 0.263423
upperback -2.35098 2.09985 2.61235
thorax 0.549189 1.05846 2.67211
lowerneck -15.7217 -6.56862 -14.9123
upperneck 14.7169 -8.40414 15.5913
head 8.51623 -3.4423 6.76503
lclavicle -2.69569e-14 -6.00265e-15 1.05198e-30
lhumerus -47.5944 -8.14977 92.4148
lradius 26.349 -0 0
lwrist 6.17352 0 0
lhand -11.067 -23.2661 0.0569255
lfingers 7.12502 -0 0
lthumb 14.9522 6.11646 0.041174
rclavicle -2.69569e-14 -6.00265e-15 1.05198e-30
rhumerus -43.1976 9.2196 -82.5179
rradius 43.8162 -0 0
rwrist -22.4651 0 0
rhand -30.8905 -24.8477 0.00162149
rfingers 7.12502 -0 0
rthumb -4.17737 -54.7861 0.00153406
214
root 8.68263 16.4781 -6.93936 8.7509 0.31741 -2.31522
lfemur -38.8008 8.4768 -20.9286
ltibia 51.0528 -0 0
lfoot -9.83769 8.64395 -0.0889203
ltoes -1.47076 0 0
rfemur -2.50706 2.88287 24.5846
rtibia 26.1419 -0 0
rfoot -6.41751 3.09356 0.221493
rtoes -14.8686 0 0
lowerback -5.50249 1.61718 0.257521
upperback -2.36252 2.12144 2.58855
thorax 0.565111 1.06909 2.6536
lowerneck -15.8113 -6.55315 -14.8787
upperneck 14.7849 -8.38195 15.57
head 8.54869 -3.42766 6.75577
lclavicle -2.72635e-14 -5.57901e-15 1.05424e-30
lhumerus -47.5461 -8.0487 92.2807
lradius 26.1268 -0 0
lwrist 5.78895 0 0
lhand -10.9125 -23.2206 0.0570482
lfingers 7.12502 -0 0
lthumb 15.101 6.15064 0.0412628
rclavicle -2.72635e-14 -5.57901e-15 1.05424e-30
rhumerus -43.2976 9.19243 -82.6684
rradius 43.7774 -0 0
rwrist -22.4928 0 0
rhand -30.8758 -24.8341 0.00162498
rfingers 7.12502 -0 0
rthumb -4.16318 -54.7727 0.00153737
215
root 8.70169 16.4724 -6.78673 8.79186 0.139085 -2.32584
lfemur -39.0072 8.50127 -20.9813
ltibia 50.7771 -0 0
lfoot -9.73988 8.53188 -0.0889203
ltoes -1.42307 0 0
rfemur -2.00228 2.85173 24.4926
rtibia 26.0669 -0 0
rfoot -5.98372 3.15677 0.221493
rtoes -14.8913 0 0
lowerback -5.55288 1.63357 0.251605
upperback -2.37407 2.14302 2.56475
thorax 0.58103 1.07973 2.63509
lowerneck -15.901 -6.53763 -14.8452
upperneck 14.8529 -8.35974 15.5487
head 8.58114 -3.41301 6.74653
lclavicle -2.75701e-14 -5.15537e-15 1.05424e-30
lhumerus -47.4981 -7.94752 92.1468
lradius 25.9047 -0 0
lwrist 5.40439 0 0
lhand -10.7579 -23.1751 0.0570482
lfingers 7.12502 -0 0
lthumb 15.2499 6.18482 0.0412628
rclavicle -2.75701e-14 -5.15537e-15 1.05424e-30
rhumerus -43.3974 9.165 -82.8188
rradius 43.7386 -0 0
rwrist -22.5205 0 0
rhand -30.8611 -24.8205 0.00162498
rfingers 7.12502 -0 0
rthumb -4.149 -54.7594 0.00153737
216
root 8.72074 16.4666 -6.63409 8.83286 -0.0392325 -2.33658
lfemur -39.2137 8.52554 -21.034
ltibia 50.5013 -0 0
lfoot -9.64206 8.41981 -0.088729
ltoes -1.37537 0 0
rfemur -1.49747 2.82141 24.4003
rtibia 25.9918 -0 0
rfoot -5.54994 3.21997 0.221015
rtoes -14.9141 0 0
lowerback -5.60328 1.64996 0.245675
upperback -2.38563 2.1646 2.54095
thorax 0.596945 1.09037 2.61658
lowerneck -15.9906 -6.52206 -14.8116
upperneck 14.9209 -8.3375 15.5274
head 8.61358 -3.39836 6.73729
lclavicle -2.78767e-14 -4.73173e-15 1.05198e-30
lhumerus -47.4503 -7.84623 92.013
lradius 25.6825 -0 0
lwrist 5.01982 0 0
lhand -10.6034 -23.1296 0.0569255
lfingers 7.12502 -0 0
lthumb 15.3987 6.219 0.041174
rclavicle -2.78767e-14 -4.73173e-15 1.05198e-30
rhumerus -43.4971 9.13731 -82.9692
rradius 43.6998 -0 0
rwrist -22.5482 0 0
rhand -30.8464 -24.8069 0.00162149
rfingers 7.12502 -0 0
rthumb -4.13481 -54.746 0.00153406
217
root 8.73979 16.4608 -6.48145 8.87388 -0.217542 -2.34746
lfemur -39.4202 8.54963 -21.0869
ltibia 50.2255 -0 0
lfoot -9.54425 8.30774 -0.0883463
ltoes -1.32767 0 0
rfemur -0.992626 2.7919 24.3077
rtibia 25.9168 -0 0
rfoot -5.11617 3.28316 0.220058
rtoes -14.9368 0 0
lowerback -5.65367 1.66633 0.23973
upperback -2.3972 2.18618 2.51714
thorax 0.612857 1.10101 2.59807
lowerneck -16.0802 -6.50644 -14.7781
upperneck 14.9889 -8.31523 15.5062
head 8.64603 -3.3837 6.72806
lclavicle -2.81834e-14 -4.30809e-15 1.04744e-30
lhumerus -47.4028 -7.74483 91.8793
lradius 25.4604 -0 0
lwrist 4.63526 0 0
lhand -10.4489 -23.0841 0.0566799
lfingers 7.12502 -0 0
lthumb 15.5475 6.25318 0.0409965
rclavicle -2.81834e-14 -4.30809e-15 1.04744e-30
rhumerus -43.5968 9.10936 -83.1196
rradius 43.6611 -0 0
rwrist -22.5758 0 0
rhand -30.8317 -24.7932 0.0016145
rfingers 7.12502 -0 0
rthumb -4.12063 -54.7327 0.00152745
218
root 8.75884 16.455 -6.32881 8.91495 -0.395845 -2.35846
lfemur -39.6267 8.57352 -21.1399
ltibia 49.9498 -0 0
lfoot -9.44643 8.19567 -0.0877724
ltoes -1.27997 0 0
rfemur -0.487745 2.76321 24.2149
rtibia 25.8418 -0 0
rfoot -4.68239 3.34635 0.218622
rtoes -14.9596 0 0
lowerback -5.70408 1.68271 0.233771
upperback -2.40877 2.20775 2.49333
thorax 0.628766 1.11167 2.57957
lowerneck -16.1698 -6.49076 -14.7447
upperneck 15.0568 -8.29294 15.485
head 8.67847 -3.36904 6.71884
lclavicle -2.849e-14 -3.88445e-15 1.04064e-30
lhumerus -47.3555 -7.64332 91.7458
lradius 25.2383 -0 0
lwrist 4.25069 0 0
lhand -10.2943 -23.0385 0.0563117
lfingers 7.12502 -0 0
lthumb 15.6964 6.28735 0.0407301
rclavicle -2.849e-14 -3.88445e-15 1.04064e-30
rhumerus -43.6964 9.08115 -83.2698
rradius 43.6223 -0 0
rwrist -22.6035 0 0
rhand -30.817 -24.7796 0.00160402
rfingers 7.12502 -0 0
rthumb -4.10645 -54.7193 0.00151753
219
root 8.7779 16.4492 -6.17617 8.95604 -0.574139 -2.36958
lfemur -39.8333 8.59723 -21.1929
ltibia 49.674 -0 0
lfoot -9.34862 8.08361 -0.0870071
ltoes -1.23228 0 0
rfemur 0.01717 2.73534 24.1218
rtibia 25.7667 -0 0
rfoot -4.24861 3.40952 0.216709
rtoes -14.9823 0 0
lowerback -5.75448 1.69907 0.227797
upperback -2.42036 2.22932 2.46951
thorax 0.644671 1.12232 2.56107
lowerneck -16.2593 -6.47503 -14.7112
upperneck 15.1247 -8.27063 15.4638
head 8.71091 -3.35437 6.70963
lclavicle -2.87966e-14 -3.46081e-15 1.03157e-30
lhumerus -47.3085 -7.5417 91.6123
lradius 25.0161 -0 0
lwrist 3.86613 0 0
lhand -10.1398 -22.993 0.0558206
lfingers 7.12502 -0 0
lthumb 15.8452 6.32153 0.040375
rclavicle -2.87966e-14 -3.46081e-15 1.03157e-30
rhumerus -43.7959 9.05269 -83.42
rradius 43.5835 -0 0
rwrist -22.6312 0 0
rhand -30.8024 -24.766 0.00159004
rfingers 7.12502 -0 0
rthumb -4.09226 -54.7059 0.00150431
220
root 8.79695 16.4435 -6.02354 8.99717 -0.752425 -2.38084
lfemur -40.0399 8.62075 -21.246
ltibia 49.3983 -0 0
lfoot -9.25081 7.97154 -0.0860505
ltoes -1.18458 0 0
rfemur 0.522118 2.70828 24.0285
rtibia 25.6917 -0 0
rfoot -3.81484 3.47268 0.214317
rtoes -15.0051 0 0
lowerback -5.80488 1.71544 0.221809
upperback -2.43195 2.25088 2.44568
thorax 0.660573 1.13299 2.54257
lowerneck -16.3489 -6.45925 -14.6778
upperneck 15.1927 -8.24828 15.4426
head 8.74335 -3.3397 6.70043
lclavicle -2.91033e-14 -3.03717e-15 1.02024e-30
lhumerus -47.2617 -7.43997 91.479
lradius 24.794 -0 0
lwrist 3.48156 0 0
lhand -9.98528 -22.9475 0.0552069
lfingers 7.12502 -0 0
lthumb 15.994 6.35571 0.0399311
rclavicle -2.91033e-14 -3.03717e-15 1.02024e-30
rhumerus -43.8953 9.02396 -83.5702
rradius 43.5447 -0 0
rwrist -22.6589 0 0
rhand -30.7877 -24.7523 0.00157256
rfingers 7.12502 -0 0
rthumb -4.07808 -54.6926 0.00148778
221
root 8.816 16.4377 -5.8709 9.03834 -0.930703 -2.39222
lfemur -40.2465 8.64408 -21.2993
ltibia 49.1225 -0 0
lfoot -9.153 7.85948 -0.0849026
ltoes -1.13688 0 0
rfemur 1.0271 2.68205 23.935
rtibia 25.6167 -0 0
rfoot -3.38107 3.53582 0.211447
rtoes -15.0278 0 0
lowerback -5.85529 1.73179 0.215806
upperback -2.44356 2.27244 2.42185
thorax 0.676472 1.14365 2.52408
lowerneck -16.4385 -6.44342 -14.6444
upperneck 15.2606 -8.22592 15.4215
head 8.77578 -3.32502 6.69123
lclavicle -2.94099e-14 -2.61353e-15 1.00663e-30
lhumerus -47.2152 -7.33814 91.3458
lradius 24.5718 -0 0
lwrist 3.097 0 0
lhand -9.83074 -22.902 0.0544703
lfingers 7.12502 -0 0
lthumb 16.1429 6.38988 0.0393984
rclavicle -2.94099e-14 -2.61353e-15 1.00663e-30
rhumerus -43.9947 8.99499 -83.7202
rradius 43.506 -0 0
rwrist -22.6865 0 0
rhand -30.773 -24.7387 0.0015516
rfingers 7.12502 -0 0
rthumb -4.0639 -54.6792 0.00146794
222
root 8.83505 16.4319 -5.71826 9.07955 -1.10897 -2.40374
lfemur -40.4532 8.66722 -21.3526
ltibia 48.8467 -0 0
lfoot -9.05519 7.74741 -0.0835634
ltoes -1.08919 0 0
rfemur 1.53211 2.65665 23.8412
rtibia 25.5416 -0 0
rfoot -2.9473 3.59893 0.208099
rtoes -15.0506 0 0
lowerback -5.9057 1.74814 0.209789
upperback -2.45517 2.29399 2.39802
thorax 0.692367 1.15432 2.50559
lowerneck -16.528 -6.42754 -14.611
upperneck 15.3285 -8.20353 15.4004
head 8.80821 -3.31034 6.68205
lclavicle -2.97165e-14 -2.18989e-15 9.90762e-31
lhumerus -47.1689 -7.23619 91.2127
lradius 24.3497 -0 0
lwrist 2.71243 0 0
lhand -9.67621 -22.8565 0.0536111
lfingers 7.12502 -0 0
lthumb 16.2917 6.42406 0.0387769
rclavicle -2.97165e-14 -2.18989e-15 9.90762e-31
rhumerus -44.0939 8.96575 -83.8702
rradius 43.4672 -0 0
rwrist -22.7142 0 0
rhand -30.7583 -24.7251 0.00152713
rfingers 7.12502 -0 0
rthumb -4.04971 -54.6659 0.0014448
223
root 8.85411 16.4261 -5.56562 9.1208 -1.28723 -2.41538
lfemur -40.6599 8.69017 -21.406
ltibia 48.571 -0 0
lfoot -8.95739 7.63535 -0.0820328
ltoes -1.04149 0 0
rfemur 2.03715 2.63207 23.7472
rtibia 25.4666 -0 0
rfoot -2.51354 3.66202 0.204273
rtoes -15.0733 0 0
lowerback -5.95611 1.76449 0.203757
upperback -2.46679 2.31554 2.37418
thorax 0.708259 1.165 2.4871
lowerneck -16.6175 -6.4116 -14.5776
upperneck 15.3964 -8.18112 15.3793
head 8.84064 -3.29565 6.67287
lclavicle -3.00232e-14 -1.76625e-15 9.72625e-31
lhumerus -47.1229 -7.13414 91.0797
lradius 24.1275 -0 0
lwrist 2.32787 0 0
lhand -9.52168 -22.811 0.0526291
lfingers 7.12502 -0 0
lthumb 16.4406 6.45823 0.0380667
rclavicle -3.00232e-14 -1.76625e-15 9.72625e-31
rhumerus -44.1931 8.93626 -84.0202
rradius 43.4284 -0 0
rwrist -22.7419 0 0
rhand -30.7436 -24.7114 0.00149918
rfingers 7.12502 -0 0
rthumb -4.03553 -54.6525 0.00141835
